<?xml version="1.0" encoding="utf-8"?>
<!-- Generator: Adobe Illustrator 28.0.0, SVG Export Plug-In . SVG Version: 6.00 Build 0)  -->
<svg version="1.1" id="Layer_1" xmlns="http://www.w3.org/2000/svg" xmlns:xlink="http://www.w3.org/1999/xlink" x="0px" y="0px"
	 viewBox="0 0 65.7 70.9" style="enable-background:new 0 0 65.7 70.9;" xml:space="preserve">
<style type="text/css">
	.st0{fill:#E7E7F5;}
</style>
<g>
	<path class="st0" d="M28.3,33.5h37.5V2c0-0.6-0.3-1.1-0.7-1.5c-0.5-0.4-1.1-0.5-1.7-0.4L28.3,6.7V33.5z"/>
	<path class="st0" d="M24.3,33.5v-26L1.6,11.8c-1,0.2-1.6,1-1.6,2v19.6H24.3z"/>
	<path class="st0" d="M28.3,37.5v26.7l35.1,6.7c0.1,0,0.3,0,0.4,0c1.1,0,2-0.9,2-2V37.5H28.3z"/>
	<path class="st0" d="M24.3,37.5H0v19.7c0,1,0.7,1.8,1.6,2l22.6,4.3V37.5z"/>
</g>
</svg>
